# xmcd
#
# Track frame offsets:
#	151
#	8859
#	24643
#	40203
#	58851
#	73524
#	90857
#	107209
#	123767
#	141628
#	151710
#	160583
#	176787
#	196804
#	211702
#	235964
#
# Disc length: 3342 seconds
#
# Revision: 1
# Processed by: cddbd v1.5.1PL2 Copyright (c) Steve Scherf et al.
# Submitted via: audiograbber 1.83.01
#
DISCID=ce0d0c10
DTITLE=Unknown Hinson - Target Practice
DYEAR=2006
DGENRE=unknown
TTITLE0=From Jail to Hell
TTITLE1=I Won't Live In Sin With You
TTITLE2=I Don't Take Dope
TTITLE3=Stalkin' The Wild She-Beast
TTITLE4=Sex Toy
TTITLE5=Ugly Things
TTITLE6=Barbie-Q
TTITLE7=Talk American
TTITLE8=Spendin' Life In Prison
TTITLE9=Satan In A Thong
TTITLE10=Run Like Hell
TTITLE11=Undead Blues
TTITLE12=Torture Town
TTITLE13=I've Been There
TTITLE14=Alkyhol Withdrawl
TTITLE15=The King Of Country Western Troubadours
EXTD=
EXTT0=
EXTT1=
EXTT2=
EXTT3=
EXTT4=
EXTT5=
EXTT6=
EXTT7=
EXTT8=
EXTT9=
EXTT10=
EXTT11=
EXTT12=
EXTT13=
EXTT14=
EXTT15=
PLAYORDER=
